<mxfile host="app.diagrams.net" modified="2022-07-22T07:29:54.552Z" agent="5.0 (Windows)" etag="AvxYkUJ4pNyAkN3QCPlI" version="20.1.4" type="github">
  <diagram id="uYRfjiD1gklh-725J0Lw" name="P치gina-1">
    <mxGraphModel dx="2354" dy="620" grid="0" gridSize="10" guides="1" tooltips="1" connect="1" arrows="1" fold="1" page="1" pageScale="1" pageWidth="1169" pageHeight="827" math="0" shadow="0">
      <root>
        <mxCell id="0" />
        <mxCell id="1" parent="0" />
        <mxCell id="BYiTT5JSdrQ-tPfnRJZV-1" value="Partido" style="swimlane;childLayout=stackLayout;horizontal=1;startSize=30;horizontalStack=0;rounded=1;fontSize=14;fontStyle=0;strokeWidth=2;resizeParent=0;resizeLast=1;shadow=0;dashed=0;align=center;html=1;" parent="1" vertex="1">
          <mxGeometry x="-445" y="411.5" width="101" height="96" as="geometry">
            <mxRectangle x="414" y="217" width="79" height="30" as="alternateBounds" />
          </mxGeometry>
        </mxCell>
        <mxCell id="BYiTT5JSdrQ-tPfnRJZV-31" value="&lt;div&gt;- &lt;u&gt;id_partido&lt;/u&gt;&lt;/div&gt;&lt;div&gt;- fecha &lt;br&gt;&lt;/div&gt;&lt;div&gt;- hora_inicio&lt;/div&gt;&lt;div&gt;- hora_final&lt;br&gt;&lt;/div&gt;&lt;div&gt;&lt;br&gt;&lt;/div&gt;&lt;div&gt;&amp;nbsp;&lt;br&gt;&lt;/div&gt;" style="align=left;strokeColor=none;fillColor=none;spacingLeft=4;fontSize=12;verticalAlign=top;resizable=0;rotatable=0;part=1;html=1;" parent="BYiTT5JSdrQ-tPfnRJZV-1" vertex="1">
          <mxGeometry y="30" width="101" height="66" as="geometry" />
        </mxCell>
        <mxCell id="BYiTT5JSdrQ-tPfnRJZV-9" value="Equipo" style="swimlane;childLayout=stackLayout;horizontal=1;startSize=30;horizontalStack=0;rounded=1;fontSize=14;fontStyle=0;strokeWidth=2;resizeParent=0;resizeLast=1;shadow=0;dashed=0;align=center;html=1;" parent="1" vertex="1">
          <mxGeometry x="-487" y="205.75" width="160" height="116" as="geometry" />
        </mxCell>
        <mxCell id="BYiTT5JSdrQ-tPfnRJZV-10" value="&lt;div&gt;- &lt;u&gt;id_equipo&lt;/u&gt;&lt;/div&gt;&lt;div&gt;- nombre&lt;/div&gt;&lt;div&gt;- presidente&lt;/div&gt;&lt;div&gt;- a침o_fundacion&lt;/div&gt;&lt;div&gt;- division&lt;br&gt;&lt;/div&gt;" style="align=left;strokeColor=none;fillColor=none;spacingLeft=4;fontSize=12;verticalAlign=top;resizable=0;rotatable=0;part=1;html=1;" parent="BYiTT5JSdrQ-tPfnRJZV-9" vertex="1">
          <mxGeometry y="30" width="160" height="86" as="geometry" />
        </mxCell>
        <mxCell id="BYiTT5JSdrQ-tPfnRJZV-11" value="Jugador" style="swimlane;childLayout=stackLayout;horizontal=1;startSize=30;horizontalStack=0;rounded=1;fontSize=14;fontStyle=0;strokeWidth=2;resizeParent=0;resizeLast=1;shadow=0;dashed=0;align=center;html=1;" parent="1" vertex="1">
          <mxGeometry x="-827" y="204" width="160" height="125.5" as="geometry" />
        </mxCell>
        <mxCell id="BYiTT5JSdrQ-tPfnRJZV-12" value="&lt;div&gt;- &lt;u&gt;num_jugador&lt;/u&gt;&lt;/div&gt;&lt;div&gt;- num_goles_temporada&lt;/div&gt;&lt;div&gt;- nombre&lt;/div&gt;&lt;div&gt;- apellidos&lt;br&gt;&lt;/div&gt;&lt;div&gt;- edad&lt;/div&gt;&lt;div&gt;- salario&lt;br&gt;&lt;/div&gt;" style="align=left;strokeColor=none;fillColor=none;spacingLeft=4;fontSize=12;verticalAlign=top;resizable=0;rotatable=0;part=1;html=1;" parent="BYiTT5JSdrQ-tPfnRJZV-11" vertex="1">
          <mxGeometry y="30" width="160" height="95.5" as="geometry" />
        </mxCell>
        <mxCell id="BYiTT5JSdrQ-tPfnRJZV-13" value="Entrenador" style="swimlane;childLayout=stackLayout;horizontal=1;startSize=30;horizontalStack=0;rounded=1;fontSize=14;fontStyle=0;strokeWidth=2;resizeParent=0;resizeLast=1;shadow=0;dashed=0;align=center;html=1;" parent="1" vertex="1">
          <mxGeometry x="-827" y="367.5" width="160" height="120" as="geometry" />
        </mxCell>
        <mxCell id="BYiTT5JSdrQ-tPfnRJZV-14" value="&lt;div&gt;- &lt;u&gt;id&lt;/u&gt;&lt;/div&gt;&lt;div&gt;- nombre&lt;/div&gt;&lt;div&gt;- apellidos&lt;/div&gt;&lt;div&gt;- a침os_exp&lt;/div&gt;&lt;div&gt;- salario&lt;br&gt;&lt;/div&gt;&lt;div&gt;&lt;br&gt;&lt;/div&gt;" style="align=left;strokeColor=none;fillColor=none;spacingLeft=4;fontSize=12;verticalAlign=top;resizable=0;rotatable=0;part=1;html=1;" parent="BYiTT5JSdrQ-tPfnRJZV-13" vertex="1">
          <mxGeometry y="30" width="160" height="90" as="geometry" />
        </mxCell>
        <mxCell id="BYiTT5JSdrQ-tPfnRJZV-15" value="Campo" style="swimlane;childLayout=stackLayout;horizontal=1;startSize=30;horizontalStack=0;rounded=1;fontSize=14;fontStyle=0;strokeWidth=2;resizeParent=0;resizeLast=1;shadow=0;dashed=0;align=center;html=1;" parent="1" vertex="1">
          <mxGeometry x="-191" y="203.75" width="160" height="120" as="geometry" />
        </mxCell>
        <mxCell id="BYiTT5JSdrQ-tPfnRJZV-16" value="&lt;div&gt;&lt;u&gt;- id_campo&lt;/u&gt;&lt;/div&gt;&lt;div&gt;- nombre&lt;/div&gt;&lt;div&gt;- ciudad&lt;br&gt;&lt;/div&gt;&lt;div&gt;- num_asientos&lt;/div&gt;&lt;div&gt;- a침o_fundacion &lt;br&gt;&lt;/div&gt;" style="align=left;strokeColor=none;fillColor=none;spacingLeft=4;fontSize=12;verticalAlign=top;resizable=0;rotatable=0;part=1;html=1;" parent="BYiTT5JSdrQ-tPfnRJZV-15" vertex="1">
          <mxGeometry y="30" width="160" height="90" as="geometry" />
        </mxCell>
        <mxCell id="BYiTT5JSdrQ-tPfnRJZV-21" value="juega" style="shape=rhombus;perimeter=rhombusPerimeter;whiteSpace=wrap;html=1;align=center;fontSize=12;" parent="1" vertex="1">
          <mxGeometry x="-441.5" y="343.5" width="94" height="50" as="geometry" />
        </mxCell>
        <mxCell id="BYiTT5JSdrQ-tPfnRJZV-22" value="" style="endArrow=none;html=1;rounded=0;fontSize=12;entryX=0.5;entryY=1;entryDx=0;entryDy=0;" parent="1" source="BYiTT5JSdrQ-tPfnRJZV-1" target="BYiTT5JSdrQ-tPfnRJZV-21" edge="1">
          <mxGeometry relative="1" as="geometry">
            <mxPoint x="-207.99999999999977" y="382.7500000000001" as="sourcePoint" />
            <mxPoint x="-108.00000000000023" y="279" as="targetPoint" />
          </mxGeometry>
        </mxCell>
        <mxCell id="BYiTT5JSdrQ-tPfnRJZV-33" value="" style="endArrow=none;html=1;rounded=0;fontSize=12;entryX=0.5;entryY=0;entryDx=0;entryDy=0;startArrow=none;exitX=0.577;exitY=1.011;exitDx=0;exitDy=0;exitPerimeter=0;" parent="1" source="BYiTT5JSdrQ-tPfnRJZV-10" target="BYiTT5JSdrQ-tPfnRJZV-21" edge="1">
          <mxGeometry relative="1" as="geometry">
            <mxPoint x="-326" y="266.5" as="sourcePoint" />
            <mxPoint x="-231" y="310.5" as="targetPoint" />
          </mxGeometry>
        </mxCell>
        <mxCell id="BYiTT5JSdrQ-tPfnRJZV-36" value="" style="endArrow=none;html=1;rounded=0;fontSize=12;startArrow=none;exitX=1;exitY=0.5;exitDx=0;exitDy=0;entryX=0;entryY=0.25;entryDx=0;entryDy=0;" parent="1" source="BYiTT5JSdrQ-tPfnRJZV-38" target="BYiTT5JSdrQ-tPfnRJZV-10" edge="1">
          <mxGeometry relative="1" as="geometry">
            <mxPoint x="-779" y="281.8805309734514" as="sourcePoint" />
            <mxPoint x="-551" y="263.28999999999996" as="targetPoint" />
          </mxGeometry>
        </mxCell>
        <mxCell id="BYiTT5JSdrQ-tPfnRJZV-39" value="" style="endArrow=none;html=1;rounded=0;fontSize=12;entryX=0;entryY=1;entryDx=0;entryDy=0;" parent="1" source="BYiTT5JSdrQ-tPfnRJZV-14" target="BYiTT5JSdrQ-tPfnRJZV-40" edge="1">
          <mxGeometry relative="1" as="geometry">
            <mxPoint x="-542" y="437.5" as="sourcePoint" />
            <mxPoint x="-382" y="437.5" as="targetPoint" />
          </mxGeometry>
        </mxCell>
        <mxCell id="BYiTT5JSdrQ-tPfnRJZV-40" value="entrena" style="shape=rhombus;perimeter=rhombusPerimeter;whiteSpace=wrap;html=1;align=center;fontSize=12;" parent="1" vertex="1">
          <mxGeometry x="-633" y="314.5" width="120" height="60" as="geometry" />
        </mxCell>
        <mxCell id="BYiTT5JSdrQ-tPfnRJZV-38" value="participa" style="shape=rhombus;perimeter=rhombusPerimeter;whiteSpace=wrap;html=1;align=center;fontSize=12;" parent="1" vertex="1">
          <mxGeometry x="-636" y="227.5" width="120" height="60" as="geometry" />
        </mxCell>
        <mxCell id="5uLw5l153kYE_iA3NJFK-8" value="" style="endArrow=none;html=1;rounded=0;fontSize=12;entryX=0;entryY=0.5;entryDx=0;entryDy=0;exitX=1;exitY=0.25;exitDx=0;exitDy=0;" parent="1" source="BYiTT5JSdrQ-tPfnRJZV-12" target="BYiTT5JSdrQ-tPfnRJZV-38" edge="1">
          <mxGeometry relative="1" as="geometry">
            <mxPoint x="-745.0000000000002" y="281.22368421052624" as="sourcePoint" />
            <mxPoint x="-487" y="279.52631578947364" as="targetPoint" />
          </mxGeometry>
        </mxCell>
        <mxCell id="5uLw5l153kYE_iA3NJFK-28" value="" style="endArrow=none;html=1;rounded=0;entryX=0;entryY=0.5;entryDx=0;entryDy=0;exitX=1;exitY=0.25;exitDx=0;exitDy=0;" parent="1" target="5uLw5l153kYE_iA3NJFK-29" edge="1" source="BYiTT5JSdrQ-tPfnRJZV-10">
          <mxGeometry relative="1" as="geometry">
            <mxPoint x="-324" y="271.5" as="sourcePoint" />
            <mxPoint x="-348" y="417.5" as="targetPoint" />
          </mxGeometry>
        </mxCell>
        <mxCell id="5uLw5l153kYE_iA3NJFK-29" value="posee" style="shape=rhombus;perimeter=rhombusPerimeter;whiteSpace=wrap;html=1;align=center;" parent="1" vertex="1">
          <mxGeometry x="-299" y="230.75" width="83" height="52" as="geometry" />
        </mxCell>
        <mxCell id="5uLw5l153kYE_iA3NJFK-31" value="" style="endArrow=none;html=1;rounded=0;entryX=0.5;entryY=1;entryDx=0;entryDy=0;exitX=1;exitY=0.25;exitDx=0;exitDy=0;" parent="1" source="BYiTT5JSdrQ-tPfnRJZV-31" target="BYiTT5JSdrQ-tPfnRJZV-16" edge="1">
          <mxGeometry relative="1" as="geometry">
            <mxPoint x="-561" y="417.5" as="sourcePoint" />
            <mxPoint x="-401" y="417.5" as="targetPoint" />
          </mxGeometry>
        </mxCell>
        <mxCell id="5uLw5l153kYE_iA3NJFK-33" value="realiza" style="shape=rhombus;perimeter=rhombusPerimeter;whiteSpace=wrap;html=1;align=center;" parent="1" vertex="1">
          <mxGeometry x="-276" y="367.5" width="92" height="48" as="geometry" />
        </mxCell>
        <mxCell id="5uLw5l153kYE_iA3NJFK-38" value="" style="endArrow=none;html=1;rounded=0;exitX=0.154;exitY=0.66;exitDx=0;exitDy=0;exitPerimeter=0;" parent="1" source="BYiTT5JSdrQ-tPfnRJZV-21" target="5uLw5l153kYE_iA3NJFK-39" edge="1">
          <mxGeometry relative="1" as="geometry">
            <mxPoint x="-499" y="400.5" as="sourcePoint" />
            <mxPoint x="-421" y="379.5" as="targetPoint" />
          </mxGeometry>
        </mxCell>
        <mxCell id="5uLw5l153kYE_iA3NJFK-39" value="goles" style="ellipse;whiteSpace=wrap;html=1;align=center;" parent="1" vertex="1">
          <mxGeometry x="-515" y="385.5" width="60" height="22" as="geometry" />
        </mxCell>
        <mxCell id="5uLw5l153kYE_iA3NJFK-43" value="&lt;p style=&quot;line-height:1.38;margin-top:0pt;margin-bottom:0pt;&quot; dir=&quot;ltr&quot;&gt;&lt;span style=&quot;font-size: 11pt; font-family: Arial; color: rgb(0, 0, 0); background-color: transparent; font-weight: 400; font-style: normal; font-variant: normal; text-decoration: none; vertical-align: baseline;&quot;&gt;Entrenador(&lt;/span&gt;&lt;/p&gt;&lt;p style=&quot;line-height:1.38;margin-top:0pt;margin-bottom:0pt;&quot; dir=&quot;ltr&quot;&gt;&lt;span style=&quot;font-size: 11pt; font-family: Arial; color: rgb(0, 0, 0); background-color: transparent; font-weight: 400; font-style: normal; font-variant: normal; text-decoration: none; vertical-align: baseline;&quot;&gt;&amp;nbsp;&amp;nbsp;&amp;nbsp; &lt;/span&gt;&lt;span style=&quot;font-size: 11pt; font-family: Arial; color: rgb(0, 0, 0); background-color: transparent; font-weight: 400; font-style: normal; font-variant: normal; text-decoration: none; vertical-align: baseline;&quot;&gt;int id,&lt;/span&gt;&lt;/p&gt;&lt;p style=&quot;line-height:1.38;margin-top:0pt;margin-bottom:0pt;&quot; dir=&quot;ltr&quot;&gt;&lt;span style=&quot;font-size: 11pt; font-family: Arial; color: rgb(0, 0, 0); background-color: transparent; font-weight: 400; font-style: normal; font-variant: normal; text-decoration: none; vertical-align: baseline;&quot;&gt;&amp;nbsp;&amp;nbsp;&amp;nbsp; &lt;/span&gt;&lt;span style=&quot;font-size: 11pt; font-family: Arial; color: rgb(0, 0, 0); background-color: transparent; font-weight: 400; font-style: normal; font-variant: normal; text-decoration: none; vertical-align: baseline;&quot;&gt;text nombre,&lt;/span&gt;&lt;/p&gt;&lt;p style=&quot;line-height:1.38;margin-top:0pt;margin-bottom:0pt;&quot; dir=&quot;ltr&quot;&gt;&lt;span style=&quot;font-size: 11pt; font-family: Arial; color: rgb(0, 0, 0); background-color: transparent; font-weight: 400; font-style: normal; font-variant: normal; text-decoration: none; vertical-align: baseline;&quot;&gt;&amp;nbsp;&amp;nbsp;&amp;nbsp; &lt;/span&gt;&lt;span style=&quot;font-size: 11pt; font-family: Arial; color: rgb(0, 0, 0); background-color: transparent; font-weight: 400; font-style: normal; font-variant: normal; text-decoration: none; vertical-align: baseline;&quot;&gt;text apellidos,&lt;/span&gt;&lt;/p&gt;&lt;p style=&quot;line-height:1.38;margin-top:0pt;margin-bottom:0pt;&quot; dir=&quot;ltr&quot;&gt;&lt;span style=&quot;font-size: 11pt; font-family: Arial; color: rgb(0, 0, 0); background-color: transparent; font-weight: 400; font-style: normal; font-variant: normal; text-decoration: none; vertical-align: baseline;&quot;&gt;&amp;nbsp;&amp;nbsp;&amp;nbsp; &lt;/span&gt;&lt;span style=&quot;font-size: 11pt; font-family: Arial; color: rgb(0, 0, 0); background-color: transparent; font-weight: 400; font-style: normal; font-variant: normal; text-decoration: none; vertical-align: baseline;&quot;&gt;int a침os_exp,&lt;/span&gt;&lt;/p&gt;&lt;p style=&quot;line-height:1.38;margin-top:0pt;margin-bottom:0pt;&quot; dir=&quot;ltr&quot;&gt;&lt;span style=&quot;font-size: 11pt; font-family: Arial; color: rgb(0, 0, 0); background-color: transparent; font-weight: 400; font-style: normal; font-variant: normal; text-decoration: none; vertical-align: baseline;&quot;&gt;&amp;nbsp;&amp;nbsp;&amp;nbsp; &lt;/span&gt;&lt;span style=&quot;font-size: 11pt; font-family: Arial; color: rgb(0, 0, 0); background-color: transparent; font-weight: 400; font-style: normal; font-variant: normal; text-decoration: none; vertical-align: baseline;&quot;&gt;int salario)&lt;/span&gt;&lt;/p&gt;&lt;br&gt;&lt;p style=&quot;line-height:1.38;margin-top:0pt;margin-bottom:0pt;&quot; dir=&quot;ltr&quot;&gt;&lt;span style=&quot;font-size: 11pt; font-family: Arial; color: rgb(0, 0, 0); background-color: transparent; font-weight: 400; font-style: normal; font-variant: normal; text-decoration: none; vertical-align: baseline;&quot;&gt;Equipo(&lt;/span&gt;&lt;/p&gt;&lt;p style=&quot;line-height:1.38;margin-top:0pt;margin-bottom:0pt;&quot; dir=&quot;ltr&quot;&gt;&lt;span style=&quot;font-size: 11pt; font-family: Arial; color: rgb(0, 0, 0); background-color: transparent; font-weight: 400; font-style: normal; font-variant: normal; text-decoration: none; vertical-align: baseline;&quot;&gt;&amp;nbsp;&amp;nbsp;&amp;nbsp; &lt;/span&gt;&lt;span style=&quot;font-size: 11pt; font-family: Arial; color: rgb(0, 0, 0); background-color: transparent; font-weight: 400; font-style: normal; font-variant: normal; text-decoration: none; vertical-align: baseline;&quot;&gt;int id_equipo,&lt;/span&gt;&lt;/p&gt;&lt;p style=&quot;line-height:1.38;margin-top:0pt;margin-bottom:0pt;&quot; dir=&quot;ltr&quot;&gt;&lt;span style=&quot;font-size: 11pt; font-family: Arial; color: rgb(0, 0, 0); background-color: transparent; font-weight: 400; font-style: normal; font-variant: normal; text-decoration: none; vertical-align: baseline;&quot;&gt;&amp;nbsp;&amp;nbsp;&amp;nbsp; &lt;/span&gt;&lt;span style=&quot;font-size: 11pt; font-family: Arial; color: rgb(0, 0, 0); background-color: transparent; font-weight: 400; font-style: normal; font-variant: normal; text-decoration: none; vertical-align: baseline;&quot;&gt;text nombre,&lt;/span&gt;&lt;/p&gt;&lt;p style=&quot;line-height:1.38;margin-top:0pt;margin-bottom:0pt;&quot; dir=&quot;ltr&quot;&gt;&lt;span style=&quot;font-size: 11pt; font-family: Arial; color: rgb(0, 0, 0); background-color: transparent; font-weight: 400; font-style: normal; font-variant: normal; text-decoration: none; vertical-align: baseline;&quot;&gt;&amp;nbsp;&amp;nbsp;&amp;nbsp; &lt;/span&gt;&lt;span style=&quot;font-size: 11pt; font-family: Arial; color: rgb(0, 0, 0); background-color: transparent; font-weight: 400; font-style: normal; font-variant: normal; text-decoration: none; vertical-align: baseline;&quot;&gt;text presidente,&lt;/span&gt;&lt;/p&gt;&lt;p style=&quot;line-height:1.38;margin-top:0pt;margin-bottom:0pt;&quot; dir=&quot;ltr&quot;&gt;&lt;span style=&quot;font-size: 11pt; font-family: Arial; color: rgb(0, 0, 0); background-color: transparent; font-weight: 400; font-style: normal; font-variant: normal; text-decoration: none; vertical-align: baseline;&quot;&gt;&amp;nbsp;&amp;nbsp;&amp;nbsp; &lt;/span&gt;&lt;span style=&quot;font-size: 11pt; font-family: Arial; color: rgb(0, 0, 0); background-color: transparent; font-weight: 400; font-style: normal; font-variant: normal; text-decoration: none; vertical-align: baseline;&quot;&gt;date a침o_fundacion&lt;/span&gt;&lt;/p&gt;&lt;p style=&quot;line-height:1.38;margin-top:0pt;margin-bottom:0pt;&quot; dir=&quot;ltr&quot;&gt;&lt;span style=&quot;font-size: 11pt; font-family: Arial; color: rgb(0, 0, 0); background-color: transparent; font-weight: 400; font-style: normal; font-variant: normal; text-decoration: none; vertical-align: baseline;&quot;&gt;&amp;nbsp;&amp;nbsp;&amp;nbsp; &lt;/span&gt;&lt;span style=&quot;font-size: 11pt; font-family: Arial; color: rgb(0, 0, 0); background-color: transparent; font-weight: 400; font-style: normal; font-variant: normal; text-decoration: none; vertical-align: baseline;&quot;&gt;int division,&lt;/span&gt;&lt;/p&gt;&lt;p style=&quot;line-height:1.38;text-indent: 36pt;margin-top:0pt;margin-bottom:0pt;&quot; dir=&quot;ltr&quot;&gt;&lt;span style=&quot;font-size: 11pt; font-family: Arial; color: rgb(0, 0, 0); background-color: transparent; font-weight: 400; font-style: normal; font-variant: normal; text-decoration: none; vertical-align: baseline;&quot;&gt;int id_entrenador)&lt;/span&gt;&lt;/p&gt;&lt;p style=&quot;line-height:1.38;margin-top:0pt;margin-bottom:0pt;&quot; dir=&quot;ltr&quot;&gt;&lt;span style=&quot;font-size: 11pt; font-family: Arial; color: rgb(0, 0, 0); background-color: transparent; font-weight: 400; font-style: normal; font-variant: normal; text-decoration: none; vertical-align: baseline;&quot;&gt;DONDE {id_entrenador} REFERENCIA ENTRENADOR&lt;/span&gt;&lt;/p&gt;&lt;br&gt;&lt;p style=&quot;line-height:1.38;margin-top:0pt;margin-bottom:0pt;&quot; dir=&quot;ltr&quot;&gt;&lt;span style=&quot;font-size: 11pt; font-family: Arial; color: rgb(0, 0, 0); background-color: transparent; font-weight: 400; font-style: normal; font-variant: normal; text-decoration: none; vertical-align: baseline;&quot;&gt;Jugador(&lt;/span&gt;&lt;/p&gt;&lt;p style=&quot;line-height:1.38;margin-top:0pt;margin-bottom:0pt;&quot; dir=&quot;ltr&quot;&gt;&lt;span style=&quot;font-size: 11pt; font-family: Arial; color: rgb(0, 0, 0); background-color: transparent; font-weight: 400; font-style: normal; font-variant: normal; text-decoration: none; vertical-align: baseline;&quot;&gt;&amp;nbsp;&amp;nbsp;&amp;nbsp; &lt;/span&gt;&lt;span style=&quot;font-size: 11pt; font-family: Arial; color: rgb(0, 0, 0); background-color: transparent; font-weight: 400; font-style: normal; font-variant: normal; text-decoration: none; vertical-align: baseline;&quot;&gt;int num_jugador,&lt;/span&gt;&lt;/p&gt;&lt;p style=&quot;line-height:1.38;margin-top:0pt;margin-bottom:0pt;&quot; dir=&quot;ltr&quot;&gt;&lt;span style=&quot;font-size: 11pt; font-family: Arial; color: rgb(0, 0, 0); background-color: transparent; font-weight: 400; font-style: normal; font-variant: normal; text-decoration: none; vertical-align: baseline;&quot;&gt;&amp;nbsp;&amp;nbsp;&amp;nbsp; &lt;/span&gt;&lt;span style=&quot;font-size: 11pt; font-family: Arial; color: rgb(0, 0, 0); background-color: transparent; font-weight: 400; font-style: normal; font-variant: normal; text-decoration: none; vertical-align: baseline;&quot;&gt;int num_goles_temporada,&lt;/span&gt;&lt;/p&gt;&lt;p style=&quot;line-height:1.38;margin-top:0pt;margin-bottom:0pt;&quot; dir=&quot;ltr&quot;&gt;&lt;span style=&quot;font-size: 11pt; font-family: Arial; color: rgb(0, 0, 0); background-color: transparent; font-weight: 400; font-style: normal; font-variant: normal; text-decoration: none; vertical-align: baseline;&quot;&gt;&amp;nbsp;&amp;nbsp;&amp;nbsp; &lt;/span&gt;&lt;span style=&quot;font-size: 11pt; font-family: Arial; color: rgb(0, 0, 0); background-color: transparent; font-weight: 400; font-style: normal; font-variant: normal; text-decoration: none; vertical-align: baseline;&quot;&gt;text nombre,&lt;/span&gt;&lt;/p&gt;&lt;p style=&quot;line-height:1.38;text-indent: 36pt;margin-top:0pt;margin-bottom:0pt;&quot; dir=&quot;ltr&quot;&gt;&lt;span style=&quot;font-size: 11pt; font-family: Arial; color: rgb(0, 0, 0); background-color: transparent; font-weight: 400; font-style: normal; font-variant: normal; text-decoration: none; vertical-align: baseline;&quot;&gt;text apellidos,&amp;nbsp;&lt;/span&gt;&lt;/p&gt;&lt;p style=&quot;line-height:1.38;text-indent: 36pt;margin-top:0pt;margin-bottom:0pt;&quot; dir=&quot;ltr&quot;&gt;&lt;span style=&quot;font-size: 11pt; font-family: Arial; color: rgb(0, 0, 0); background-color: transparent; font-weight: 400; font-style: normal; font-variant: normal; text-decoration: none; vertical-align: baseline;&quot;&gt;int edad,&lt;/span&gt;&lt;/p&gt;&lt;p style=&quot;line-height:1.38;text-indent: 36pt;margin-top:0pt;margin-bottom:0pt;&quot; dir=&quot;ltr&quot;&gt;&lt;span style=&quot;font-size: 11pt; font-family: Arial; color: rgb(0, 0, 0); background-color: transparent; font-weight: 400; font-style: normal; font-variant: normal; text-decoration: none; vertical-align: baseline;&quot;&gt;int salario,&lt;/span&gt;&lt;/p&gt;&lt;p style=&quot;line-height:1.38;text-indent: 36pt;margin-top:0pt;margin-bottom:0pt;&quot; dir=&quot;ltr&quot;&gt;&lt;span style=&quot;font-size: 11pt; font-family: Arial; color: rgb(0, 0, 0); background-color: transparent; font-weight: 400; font-style: normal; font-variant: normal; text-decoration: none; vertical-align: baseline;&quot;&gt;int id_equipo)&lt;/span&gt;&lt;/p&gt;&lt;p style=&quot;line-height:1.38;margin-top:0pt;margin-bottom:0pt;&quot; dir=&quot;ltr&quot;&gt;&lt;span style=&quot;font-size: 11pt; font-family: Arial; color: rgb(0, 0, 0); background-color: transparent; font-weight: 400; font-style: normal; font-variant: normal; text-decoration: none; vertical-align: baseline;&quot;&gt;DONDE {id_equipo} REFERENCIA EQUIPO&lt;/span&gt;&lt;/p&gt;&lt;br&gt;&lt;p style=&quot;line-height:1.38;margin-top:0pt;margin-bottom:0pt;&quot; dir=&quot;ltr&quot;&gt;&lt;span style=&quot;font-size: 11pt; font-family: Arial; color: rgb(0, 0, 0); background-color: transparent; font-weight: 400; font-style: normal; font-variant: normal; text-decoration: none; vertical-align: baseline;&quot;&gt;Campo(&lt;/span&gt;&lt;/p&gt;&lt;p style=&quot;line-height:1.38;margin-top:0pt;margin-bottom:0pt;&quot; dir=&quot;ltr&quot;&gt;&lt;span style=&quot;font-size: 11pt; font-family: Arial; color: rgb(0, 0, 0); background-color: transparent; font-weight: 400; font-style: normal; font-variant: normal; text-decoration: none; vertical-align: baseline;&quot;&gt;&amp;nbsp;&amp;nbsp;&amp;nbsp; &lt;/span&gt;&lt;span style=&quot;font-size: 11pt; font-family: Arial; color: rgb(0, 0, 0); background-color: transparent; font-weight: 400; font-style: normal; font-variant: normal; text-decoration: none; vertical-align: baseline;&quot;&gt;int id_campo,&lt;/span&gt;&lt;/p&gt;&lt;p style=&quot;line-height:1.38;margin-top:0pt;margin-bottom:0pt;&quot; dir=&quot;ltr&quot;&gt;&lt;span style=&quot;font-size: 11pt; font-family: Arial; color: rgb(0, 0, 0); background-color: transparent; font-weight: 400; font-style: normal; font-variant: normal; text-decoration: none; vertical-align: baseline;&quot;&gt;&amp;nbsp;&amp;nbsp;&amp;nbsp; &lt;/span&gt;&lt;span style=&quot;font-size: 11pt; font-family: Arial; color: rgb(0, 0, 0); background-color: transparent; font-weight: 400; font-style: normal; font-variant: normal; text-decoration: none; vertical-align: baseline;&quot;&gt;text nombre,&lt;/span&gt;&lt;/p&gt;&lt;p style=&quot;line-height:1.38;margin-top:0pt;margin-bottom:0pt;&quot; dir=&quot;ltr&quot;&gt;&lt;span style=&quot;font-size: 11pt; font-family: Arial; color: rgb(0, 0, 0); background-color: transparent; font-weight: 400; font-style: normal; font-variant: normal; text-decoration: none; vertical-align: baseline;&quot;&gt;&amp;nbsp;&amp;nbsp;&amp;nbsp; &lt;/span&gt;&lt;span style=&quot;font-size: 11pt; font-family: Arial; color: rgb(0, 0, 0); background-color: transparent; font-weight: 400; font-style: normal; font-variant: normal; text-decoration: none; vertical-align: baseline;&quot;&gt;text ciudad,&lt;/span&gt;&lt;/p&gt;&lt;p style=&quot;line-height:1.38;margin-top:0pt;margin-bottom:0pt;&quot; dir=&quot;ltr&quot;&gt;&lt;span style=&quot;font-size: 11pt; font-family: Arial; color: rgb(0, 0, 0); background-color: transparent; font-weight: 400; font-style: normal; font-variant: normal; text-decoration: none; vertical-align: baseline;&quot;&gt;&amp;nbsp;&amp;nbsp;&amp;nbsp; &lt;/span&gt;&lt;span style=&quot;font-size: 11pt; font-family: Arial; color: rgb(0, 0, 0); background-color: transparent; font-weight: 400; font-style: normal; font-variant: normal; text-decoration: none; vertical-align: baseline;&quot;&gt;int num_asientos,&lt;/span&gt;&lt;/p&gt;&lt;p style=&quot;line-height:1.38;margin-top:0pt;margin-bottom:0pt;&quot; dir=&quot;ltr&quot;&gt;&lt;span style=&quot;font-size: 11pt; font-family: Arial; color: rgb(0, 0, 0); background-color: transparent; font-weight: 400; font-style: normal; font-variant: normal; text-decoration: none; vertical-align: baseline;&quot;&gt;&amp;nbsp;&amp;nbsp;&amp;nbsp; &lt;/span&gt;&lt;span style=&quot;font-size: 11pt; font-family: Arial; color: rgb(0, 0, 0); background-color: transparent; font-weight: 400; font-style: normal; font-variant: normal; text-decoration: none; vertical-align: baseline;&quot;&gt;date inauguracion&lt;/span&gt;&lt;/p&gt;&lt;p style=&quot;line-height:1.38;text-indent: 36pt;margin-top:0pt;margin-bottom:0pt;&quot; dir=&quot;ltr&quot;&gt;&lt;span style=&quot;font-size: 11pt; font-family: Arial; color: rgb(0, 0, 0); background-color: transparent; font-weight: 400; font-style: normal; font-variant: normal; text-decoration: none; vertical-align: baseline;&quot;&gt;int id_equipo)&lt;/span&gt;&lt;/p&gt;&lt;p style=&quot;line-height:1.38;margin-top:0pt;margin-bottom:0pt;&quot; dir=&quot;ltr&quot;&gt;&lt;span style=&quot;font-size: 11pt; font-family: Arial; color: rgb(0, 0, 0); background-color: transparent; font-weight: 400; font-style: normal; font-variant: normal; text-decoration: none; vertical-align: baseline;&quot;&gt;DONDE {id_equipo} REFERENCIA EQUIPO&lt;/span&gt;&lt;/p&gt;&lt;br&gt;&lt;p style=&quot;line-height:1.38;margin-top:0pt;margin-bottom:0pt;&quot; dir=&quot;ltr&quot;&gt;&lt;span style=&quot;font-size: 11pt; font-family: Arial; color: rgb(0, 0, 0); background-color: transparent; font-weight: 400; font-style: normal; font-variant: normal; text-decoration: none; vertical-align: baseline;&quot;&gt;Partido(&lt;/span&gt;&lt;/p&gt;&lt;p style=&quot;line-height:1.38;margin-top:0pt;margin-bottom:0pt;&quot; dir=&quot;ltr&quot;&gt;&lt;span style=&quot;font-size: 11pt; font-family: Arial; color: rgb(0, 0, 0); background-color: transparent; font-weight: 400; font-style: normal; font-variant: normal; text-decoration: none; vertical-align: baseline;&quot;&gt;&amp;nbsp;&amp;nbsp;&amp;nbsp; &lt;/span&gt;&lt;span style=&quot;font-size: 11pt; font-family: Arial; color: rgb(0, 0, 0); background-color: transparent; font-weight: 400; font-style: normal; font-variant: normal; text-decoration: none; vertical-align: baseline;&quot;&gt;int id,&lt;/span&gt;&lt;/p&gt;&lt;p style=&quot;line-height:1.38;margin-top:0pt;margin-bottom:0pt;&quot; dir=&quot;ltr&quot;&gt;&lt;span style=&quot;font-size: 11pt; font-family: Arial; color: rgb(0, 0, 0); background-color: transparent; font-weight: 400; font-style: normal; font-variant: normal; text-decoration: none; vertical-align: baseline;&quot;&gt;&amp;nbsp;&amp;nbsp;&amp;nbsp; &lt;/span&gt;&lt;span style=&quot;font-size: 11pt; font-family: Arial; color: rgb(0, 0, 0); background-color: transparent; font-weight: 400; font-style: normal; font-variant: normal; text-decoration: none; vertical-align: baseline;&quot;&gt;date fecha&lt;/span&gt;&lt;/p&gt;&lt;p style=&quot;line-height:1.38;margin-top:0pt;margin-bottom:0pt;&quot; dir=&quot;ltr&quot;&gt;&lt;span style=&quot;font-size: 11pt; font-family: Arial; color: rgb(0, 0, 0); background-color: transparent; font-weight: 400; font-style: normal; font-variant: normal; text-decoration: none; vertical-align: baseline;&quot;&gt;&amp;nbsp;&amp;nbsp;&amp;nbsp; &lt;/span&gt;&lt;span style=&quot;font-size: 11pt; font-family: Arial; color: rgb(0, 0, 0); background-color: transparent; font-weight: 400; font-style: normal; font-variant: normal; text-decoration: none; vertical-align: baseline;&quot;&gt;date hora_inicio,&lt;/span&gt;&lt;/p&gt;&lt;p style=&quot;line-height:1.38;margin-top:0pt;margin-bottom:0pt;&quot; dir=&quot;ltr&quot;&gt;&lt;span style=&quot;font-size: 11pt; font-family: Arial; color: rgb(0, 0, 0); background-color: transparent; font-weight: 400; font-style: normal; font-variant: normal; text-decoration: none; vertical-align: baseline;&quot;&gt;&amp;nbsp;&amp;nbsp;&amp;nbsp; &lt;/span&gt;&lt;span style=&quot;font-size: 11pt; font-family: Arial; color: rgb(0, 0, 0); background-color: transparent; font-weight: 400; font-style: normal; font-variant: normal; text-decoration: none; vertical-align: baseline;&quot;&gt;date hora_final&lt;/span&gt;&lt;/p&gt;&lt;p style=&quot;line-height:1.38;text-indent: 36pt;margin-top:0pt;margin-bottom:0pt;&quot; dir=&quot;ltr&quot;&gt;&lt;span style=&quot;font-size: 11pt; font-family: Arial; color: rgb(0, 0, 0); background-color: transparent; font-weight: 400; font-style: normal; font-variant: normal; text-decoration: none; vertical-align: baseline;&quot;&gt;int id_campo)&lt;/span&gt;&lt;/p&gt;&lt;p style=&quot;line-height:1.38;margin-top:0pt;margin-bottom:0pt;&quot; dir=&quot;ltr&quot;&gt;&lt;span style=&quot;font-size: 11pt; font-family: Arial; color: rgb(0, 0, 0); background-color: transparent; font-weight: 400; font-style: normal; font-variant: normal; text-decoration: none; vertical-align: baseline;&quot;&gt;DONDE {id_campo} REFERENCIA CAMPO&lt;/span&gt;&lt;/p&gt;&lt;br&gt;&lt;p style=&quot;line-height:1.38;margin-top:0pt;margin-bottom:0pt;&quot; dir=&quot;ltr&quot;&gt;&lt;span style=&quot;font-size: 11pt; font-family: Arial; color: rgb(0, 0, 0); background-color: transparent; font-weight: 400; font-style: normal; font-variant: normal; text-decoration: none; vertical-align: baseline;&quot;&gt;Jugar(&lt;/span&gt;&lt;/p&gt;&lt;p style=&quot;line-height:1.38;margin-top:0pt;margin-bottom:0pt;&quot; dir=&quot;ltr&quot;&gt;&lt;span style=&quot;font-size: 11pt; font-family: Arial; color: rgb(0, 0, 0); background-color: transparent; font-weight: 400; font-style: normal; font-variant: normal; text-decoration: none; vertical-align: baseline;&quot;&gt;&amp;nbsp;&amp;nbsp;&amp;nbsp; &lt;/span&gt;&lt;span style=&quot;font-size: 11pt; font-family: Arial; color: rgb(0, 0, 0); background-color: transparent; font-weight: 400; font-style: normal; font-variant: normal; text-decoration: none; vertical-align: baseline;&quot;&gt;int id_equipo,&lt;/span&gt;&lt;/p&gt;&lt;p style=&quot;line-height:1.38;margin-top:0pt;margin-bottom:0pt;&quot; dir=&quot;ltr&quot;&gt;&lt;span style=&quot;font-size: 11pt; font-family: Arial; color: rgb(0, 0, 0); background-color: transparent; font-weight: 400; font-style: normal; font-variant: normal; text-decoration: none; vertical-align: baseline;&quot;&gt;&amp;nbsp;&amp;nbsp;&amp;nbsp; &lt;/span&gt;&lt;span style=&quot;font-size: 11pt; font-family: Arial; color: rgb(0, 0, 0); background-color: transparent; font-weight: 400; font-style: normal; font-variant: normal; text-decoration: none; vertical-align: baseline;&quot;&gt;int id_partido,&lt;/span&gt;&lt;/p&gt;&lt;p style=&quot;line-height:1.38;margin-top:0pt;margin-bottom:0pt;&quot; dir=&quot;ltr&quot;&gt;&lt;span style=&quot;font-size: 11pt; font-family: Arial; color: rgb(0, 0, 0); background-color: transparent; font-weight: 400; font-style: normal; font-variant: normal; text-decoration: none; vertical-align: baseline;&quot;&gt;&amp;nbsp;&amp;nbsp;&amp;nbsp; &lt;/span&gt;&lt;span style=&quot;font-size: 11pt; font-family: Arial; color: rgb(0, 0, 0); background-color: transparent; font-weight: 400; font-style: normal; font-variant: normal; text-decoration: none; vertical-align: baseline;&quot;&gt;goles)&lt;/span&gt;&lt;/p&gt;&lt;p style=&quot;line-height:1.38;margin-top:0pt;margin-bottom:0pt;&quot; dir=&quot;ltr&quot;&gt;&lt;span style=&quot;font-size: 11pt; font-family: Arial; color: rgb(0, 0, 0); background-color: transparent; font-weight: 400; font-style: normal; font-variant: normal; text-decoration: none; vertical-align: baseline;&quot;&gt;DONDE {id_equipo} REFERENCIA EQUIPO&lt;/span&gt;&lt;/p&gt;&lt;p style=&quot;line-height:1.38;margin-top:0pt;margin-bottom:0pt;&quot; dir=&quot;ltr&quot;&gt;&lt;span style=&quot;font-size: 11pt; font-family: Arial; color: rgb(0, 0, 0); background-color: transparent; font-weight: 400; font-style: normal; font-variant: normal; text-decoration: none; vertical-align: baseline;&quot;&gt;&amp;nbsp;&amp;nbsp;&amp;nbsp; &lt;/span&gt;&lt;span style=&quot;font-size: 11pt; font-family: Arial; color: rgb(0, 0, 0); background-color: transparent; font-weight: 400; font-style: normal; font-variant: normal; text-decoration: none; vertical-align: baseline;&quot;&gt;{id_partido} REFERENCIA PARTIDO&lt;/span&gt;&lt;/p&gt;" style="text;whiteSpace=wrap;html=1;" parent="1" vertex="1">
          <mxGeometry x="-1148" y="32" width="362" height="974" as="geometry" />
        </mxCell>
        <mxCell id="2Lc1r432Q5xnslmO6-L1-1" value="1:N" style="text;html=1;align=center;verticalAlign=middle;resizable=0;points=[];autosize=1;strokeColor=none;fillColor=none;" vertex="1" parent="1">
          <mxGeometry x="-522" y="225" width="37" height="26" as="geometry" />
        </mxCell>
        <mxCell id="2Lc1r432Q5xnslmO6-L1-2" value="1:N" style="text;html=1;align=center;verticalAlign=middle;resizable=0;points=[];autosize=1;strokeColor=none;fillColor=none;" vertex="1" parent="1">
          <mxGeometry x="-671" y="225" width="37" height="26" as="geometry" />
        </mxCell>
        <mxCell id="2Lc1r432Q5xnslmO6-L1-3" value="1:N" style="text;html=1;align=center;verticalAlign=middle;resizable=0;points=[];autosize=1;strokeColor=none;fillColor=none;" vertex="1" parent="1">
          <mxGeometry x="-521" y="280.75" width="37" height="26" as="geometry" />
        </mxCell>
        <mxCell id="2Lc1r432Q5xnslmO6-L1-4" value="1:N" style="text;html=1;align=center;verticalAlign=middle;resizable=0;points=[];autosize=1;strokeColor=none;fillColor=none;" vertex="1" parent="1">
          <mxGeometry x="-675" y="361" width="37" height="26" as="geometry" />
        </mxCell>
        <mxCell id="2Lc1r432Q5xnslmO6-L1-6" value="" style="endArrow=none;html=1;rounded=0;exitX=1;exitY=0.5;exitDx=0;exitDy=0;entryX=0;entryY=0.25;entryDx=0;entryDy=0;" edge="1" parent="1" source="5uLw5l153kYE_iA3NJFK-29" target="BYiTT5JSdrQ-tPfnRJZV-16">
          <mxGeometry width="50" height="50" relative="1" as="geometry">
            <mxPoint x="-332" y="321" as="sourcePoint" />
            <mxPoint x="-282" y="271" as="targetPoint" />
          </mxGeometry>
        </mxCell>
        <mxCell id="2Lc1r432Q5xnslmO6-L1-7" value="" style="endArrow=none;html=1;rounded=0;entryX=1;entryY=0;entryDx=0;entryDy=0;exitX=0;exitY=0.75;exitDx=0;exitDy=0;" edge="1" parent="1" source="BYiTT5JSdrQ-tPfnRJZV-10" target="BYiTT5JSdrQ-tPfnRJZV-40">
          <mxGeometry width="50" height="50" relative="1" as="geometry">
            <mxPoint x="-589" y="389" as="sourcePoint" />
            <mxPoint x="-539" y="339" as="targetPoint" />
          </mxGeometry>
        </mxCell>
        <mxCell id="2Lc1r432Q5xnslmO6-L1-8" value="1:N" style="text;html=1;align=center;verticalAlign=middle;resizable=0;points=[];autosize=1;strokeColor=none;fillColor=none;" vertex="1" parent="1">
          <mxGeometry x="-335" y="233" width="37" height="26" as="geometry" />
        </mxCell>
        <mxCell id="2Lc1r432Q5xnslmO6-L1-9" value="1:1" style="text;html=1;align=center;verticalAlign=middle;resizable=0;points=[];autosize=1;strokeColor=none;fillColor=none;" vertex="1" parent="1">
          <mxGeometry x="-222" y="233" width="35" height="26" as="geometry" />
        </mxCell>
        <mxCell id="2Lc1r432Q5xnslmO6-L1-10" value="0:N" style="text;html=1;align=center;verticalAlign=middle;resizable=0;points=[];autosize=1;strokeColor=none;fillColor=none;" vertex="1" parent="1">
          <mxGeometry x="-349" y="421" width="37" height="26" as="geometry" />
        </mxCell>
        <mxCell id="2Lc1r432Q5xnslmO6-L1-11" value="1:1" style="text;html=1;align=center;verticalAlign=middle;resizable=0;points=[];autosize=1;strokeColor=none;fillColor=none;" vertex="1" parent="1">
          <mxGeometry x="-169" y="320" width="35" height="26" as="geometry" />
        </mxCell>
        <mxCell id="2Lc1r432Q5xnslmO6-L1-12" value="0:N" style="text;html=1;align=center;verticalAlign=middle;resizable=0;points=[];autosize=1;strokeColor=none;fillColor=none;" vertex="1" parent="1">
          <mxGeometry x="-399" y="387" width="37" height="26" as="geometry" />
        </mxCell>
        <mxCell id="2Lc1r432Q5xnslmO6-L1-13" value="N:M" style="text;html=1;align=center;verticalAlign=middle;resizable=0;points=[];autosize=1;strokeColor=none;fillColor=none;" vertex="1" parent="1">
          <mxGeometry x="-400" y="317.5" width="39" height="26" as="geometry" />
        </mxCell>
      </root>
    </mxGraphModel>
  </diagram>
</mxfile>
